<svg height="100%" viewBox="0 150 1340 900" fill="none" xmlns="http://www.w3.org/2000/svg">
<g class="bodymap" id="abdominals">
<path d="M384.32 490.61C386.41 457.79 388.65 408.87 388.74 397.67C388.79 392.09 388.67 389.6 388.58 387.74L388.56 387.35C388.5 385.83 388.44 384.62 388.54 382.23C388.56 381.7 388.59 381.18 388.62 380.71C388.64 380.58 388.64 380.45 388.64 380.34C388.68 379.72 388.71 379.12 388.76 378.55L388.81 378.04C388.83 377.82 388.84 377.62 388.88 377.39C389.59 370 391.12 365.02 392.36 361.01L392.47 360.64C393.98 355.77 394.81 353.08 393.26 349.6C391.24 345.04 385.88 341.08 376.39 337.12C376.36 337.11 376.32 337.1 376.29 337.09C376.29 337.09 376.29 337.09 376.26 337.07C374.72 336.53 373.1 335.9 371.46 335.19C371.42 335.17 371.39 335.16 371.33 335.14C360.54 331.16 346.9 328.38 340.97 332.51C338.84 334 337.8 336.3 337.8 339.54C337.8 340.28 337.2 340.88 336.42 340.89C336.33 340.86 336.19 340.85 336.1 340.89C335.36 340.89 334.76 340.29 334.76 339.55C334.76 336.32 333.72 334.02 331.57 332.52C329.69 331.21 321.97 327.54 301.28 335.13L301.18 335.17L301.1 335.2C299.5 335.9 297.87 336.54 296.23 337.1H296.21C296.21 337.1 296.17 337.12 296.16 337.13C286.67 341.09 281.31 345.05 279.31 349.61C277.75 353.12 278.59 355.82 280.11 360.73C281.31 364.54 282.95 369.77 283.7 377.43C283.83 378.3 283.91 379.28 283.93 380.4C283.94 380.48 283.94 380.57 283.94 380.7C283.98 381.21 284.01 381.72 284.03 382.25C284.13 384.82 284.09 386.01 283.99 387.8C283.9 389.62 283.78 392.11 283.83 397.69C283.94 409.23 286.19 458.22 288.25 490.63C291.6 543.3 323.93 583.5 336.14 583.49C336.19 583.51 336.25 583.51 336.31 583.51C336.36 583.51 336.41 583.51 336.45 583.49C348.6 583.49 380.92 543.3 384.28 490.62L384.32 490.61ZM291.68 377.57C291.08 377.57 290.56 377.18 290.39 376.6C290.18 375.9 290.59 375.16 291.3 374.94C305.76 370.74 315.58 368.2 330 368.49C334.47 368.47 334.8 361.56 334.8 351.03C334.8 350.29 335.4 349.69 336.18 349.69C336.27 349.72 336.41 349.73 336.49 349.69C337.23 349.69 337.83 350.29 337.83 351.03C337.83 361.57 338.17 368.47 342.66 368.49C357.04 368.2 366.87 370.74 381.31 374.93C381.66 375.04 381.94 375.27 382.12 375.58C382.29 375.89 382.33 376.25 382.23 376.59C382.04 377.3 381.26 377.71 380.57 377.51C367.11 373.59 357.74 371.15 344.95 371.15C344.21 371.15 343.46 371.15 342.7 371.17C339.84 371.15 337.89 369.72 336.73 366.78C336.6 366.45 336.05 366.45 335.92 366.78C334.74 369.76 332.86 371.16 330 371.17C315.97 370.87 306.3 373.36 292.05 377.51C291.95 377.54 291.83 377.56 291.69 377.56L291.68 377.57ZM369.88 378.6C369.79 378.95 369.56 379.25 369.25 379.43C368.95 379.6 368.59 379.65 368.25 379.55L366.97 379.22C361.69 377.83 352.87 375.5 345.68 376.72C339.05 377.85 337.84 381.39 337.84 387.95C337.84 388.69 337.24 389.29 336.46 389.29C336.41 389.27 336.35 389.27 336.29 389.27C336.24 389.27 336.19 389.27 336.15 389.29C335.4 389.29 334.81 388.7 334.81 387.95C334.81 381.39 333.59 377.86 326.95 376.72C319.75 375.5 310.9 377.84 305.62 379.23L304.37 379.55C304.03 379.64 303.68 379.6 303.37 379.43C303.06 379.25 302.83 378.96 302.74 378.6C302.55 377.87 302.98 377.15 303.71 376.96L304.92 376.64C310.41 375.18 319.59 372.73 327.41 374.07C331.62 374.78 334.41 376.51 335.94 379.35C336.09 379.63 336.56 379.63 336.71 379.35C338.24 376.51 341.03 374.78 345.24 374.07C353.03 372.73 362.22 375.18 367.71 376.64L368.93 376.96C369.65 377.15 370.07 377.87 369.88 378.59V378.6ZM293.5 423.27C293.25 423.01 293.12 422.67 293.12 422.31C293.12 421.93 293.28 421.57 293.55 421.33C293.8 421.1 294.13 420.98 294.47 421L295.96 421.02C310.93 421.27 325.07 421.51 332.23 417.45C334.4 416.23 334.82 413.46 334.95 410.87C334.88 409.36 334.92 407.73 334.97 406.17L334.92 404.53C334.83 402.44 334.79 400.7 334.79 399.06C334.79 398.32 335.39 397.72 336.17 397.72C336.26 397.75 336.39 397.75 336.48 397.72C337.22 397.72 337.82 398.32 337.82 399.06C337.82 401.02 337.74 402.97 337.68 404.58C337.66 405.03 337.65 405.46 337.65 405.91C337.7 407.59 337.74 409.37 337.65 411.07C337.85 414.58 338.67 416.48 340.37 417.44C347.53 421.5 361.67 421.26 376.63 421.01L378.15 420.99C378.48 420.97 378.79 421.08 379.04 421.31C379.32 421.56 379.48 421.93 379.49 422.29C379.49 423.03 378.89 423.65 378.16 423.67L376.69 423.69C373.67 423.75 369.73 423.81 365.99 423.81C355.71 423.81 345.32 423.32 339.04 419.77C338.05 419.2 337.25 418.45 336.65 417.55C336.57 417.43 336.43 417.35 336.29 417.35C336.14 417.35 336 417.43 335.93 417.55C335.36 418.45 334.59 419.18 333.56 419.77C327.29 423.33 316.9 423.82 306.61 423.82C302.86 423.82 298.93 423.75 295.93 423.7L294.44 423.68C294.09 423.68 293.75 423.53 293.5 423.27ZM369.92 427.61C369.87 427.98 369.68 428.31 369.39 428.53C369.12 428.74 368.78 428.82 368.43 428.77L368.25 428.75C362.71 428.11 353.43 427.04 345.29 427.17C338.96 427.24 337.83 430.51 337.83 439.66C337.83 440.4 337.23 441 336.45 441C336.4 440.98 336.34 440.97 336.28 440.97C336.23 440.97 336.18 440.97 336.14 440.99C335.4 440.99 334.8 440.39 334.8 439.65C334.8 430.5 333.67 427.23 327.32 427.16C319.22 427.04 309.97 428.1 304.44 428.73L304.17 428.76C303.44 428.85 302.78 428.33 302.69 427.6C302.61 426.86 303.14 426.19 303.87 426.11C309.51 425.45 318.94 424.36 327.36 424.48C331.61 424.54 334.41 426 335.93 428.93C336.08 429.22 336.55 429.22 336.7 428.93C338.22 426 341.02 424.54 345.27 424.48C353.81 424.37 363.52 425.5 368.75 426.11C369.48 426.19 370.01 426.86 369.93 427.59L369.92 427.61ZM295 470.9C294.76 470.64 294.63 470.3 294.64 469.95C294.65 469.58 294.82 469.23 295.09 468.98C295.34 468.75 295.68 468.64 296.02 468.66C301.12 468.84 304.81 469.09 308.07 469.3L309.04 469.36C314.3 469.75 318.85 470.08 327.57 469.82C333.52 469.39 334.79 467.8 334.79 451.93C334.79 451.19 335.39 450.59 336.17 450.58C336.26 450.61 336.4 450.62 336.49 450.58C337.23 450.58 337.83 451.18 337.83 451.92C337.83 468.54 339.46 469.4 345.14 469.83C353.76 470.07 358.3 469.73 363.56 469.35L364.53 469.28C367.79 469.06 371.48 468.81 376.6 468.63C376.92 468.6 377.24 468.71 377.5 468.94C377.79 469.19 377.96 469.55 377.97 469.92C377.98 470.27 377.85 470.61 377.61 470.87C377.36 471.13 377.03 471.28 376.67 471.3C371.13 471.51 367.25 471.78 363.75 472.03C359.57 472.32 355.97 472.58 350.66 472.58C348.59 472.58 346.79 472.55 344.99 472.49C340.44 472.15 338.04 470.74 336.73 467.64C336.66 467.48 336.5 467.37 336.33 467.37C336.16 467.37 336 467.47 335.93 467.63C334.6 470.73 332.21 472.14 327.7 472.48C325.86 472.54 324.02 472.57 321.93 472.57C316.61 472.57 312.84 472.3 308.86 472.02C305.36 471.77 301.47 471.5 295.94 471.29C295.58 471.28 295.25 471.13 295.01 470.87L295 470.9ZM337.83 570.5C337.83 571.24 337.23 571.84 336.49 571.84H336.14C335.4 571.84 334.8 571.24 334.8 570.5V503.38C334.8 502.63 335.39 502.04 336.14 502.04H336.49C337.23 502.04 337.83 502.64 337.83 503.38V570.5ZM337.66 488.3C337.64 488.38 337.64 488.47 337.66 488.56C337.71 489.72 337.71 490.89 337.71 492.02V492.8C337.71 493.54 337.11 494.14 336.37 494.14H336.25C335.51 494.14 334.91 493.54 334.91 492.8V492.02C334.91 490.87 334.91 489.69 334.96 488.49V488.38C334.78 483.98 334.01 480.91 330.82 480.18C325.59 479 311.19 477.57 304.86 477.57C304.57 477.57 304.3 477.57 304.04 477.57C303.73 477.6 303.41 477.48 303.15 477.25C302.87 476.99 302.7 476.63 302.7 476.26C302.7 475.9 302.83 475.56 303.07 475.3C303.32 475.04 303.65 474.9 304.01 474.89C310.18 474.76 325.81 476.29 331.41 477.56C333.44 478.03 334.93 479.08 335.95 480.77C336.03 480.9 336.17 480.98 336.32 480.98C336.47 480.98 336.62 480.9 336.69 480.77C337.69 479.08 339.16 478.04 341.2 477.56C346.75 476.3 362.39 474.78 368.62 474.89C368.98 474.89 369.31 475.04 369.56 475.3C369.8 475.56 369.93 475.89 369.92 476.25C369.92 476.62 369.75 476.97 369.48 477.22C369.24 477.44 368.94 477.56 368.63 477.56C368.6 477.56 368.58 477.56 368.55 477.56C362.8 477.41 347.33 478.91 341.81 480.16C338.63 480.89 337.84 483.93 337.66 488.29V488.3Z" fill="currentColor"></path>
</g>
<g class="bodymap" id="abdominals">
<path d="M278.25 405.1L278.22 405.27L278.23 405.26L278.2 405.42L278.181 405.528C275.415 420.952 272.286 438.408 274.68 454.63C279.61 488.3 267.94 503.64 262.69 508.67C257.5 513.64 249.36 516.54 241.25 516.54C239.37 516.54 237.5 516.38 235.66 516.06C235.43 516.02 235.27 515.81 235.3 515.58C236.6 505.04 237.65 495.4 238.26 488.43C238.68 483.48 239.34 478.52 240.05 473.27L240.08 473.02L240.082 473.006C242.671 453.691 245.348 433.726 235.63 414.4C215.71 376.03 210.63 351.86 209.81 347.41V347.31C209.81 347.26 209.81 347.22 209.83 347.17C210.97 343.85 211.84 340.34 212.44 336.75C213.35 331.07 215.45 317.93 211.12 308.04C211.04 307.85 211.1 307.63 211.27 307.51C211.44 307.39 211.67 307.41 211.82 307.55C214.24 309.84 216.37 312.33 218.14 314.46C219.35 315.91 220.38 317.07 221.37 318.09C221.384 318.104 221.398 318.12 221.413 318.137C221.43 318.157 221.449 318.179 221.47 318.2C221.47 318.21 221.54 318.28 221.54 318.28C231.955 329.911 244.178 340.439 254.971 349.736L255.08 349.83L255.22 349.96L255.238 349.975C268.64 361.529 280.21 371.503 281.06 377.77C281.088 377.911 281.108 378.106 281.127 378.295L281.13 378.33V378.45C281.15 378.5 281.17 378.65 281.17 378.82C281.21 379.09 281.23 379.41 281.25 379.75L281.28 380.33C281.3 380.41 281.3 380.49 281.3 380.56C281.51 386.9 280 395.33 278.25 405.1Z" fill="currentColor"></path>
<path d="M460.77 307.59C460.92 307.45 461.15 307.43 461.32 307.55L461.33 307.56C461.5 307.68 461.56 307.9 461.48 308.09C457.17 317.96 459.26 331.07 460.16 336.67L460.18 336.77C460.78 340.36 461.65 343.87 462.79 347.19C462.81 347.23 462.81 347.28 462.81 347.33V347.43C461.66 353.7 456.4 377.07 436.99 414.44C427.27 433.74 429.95 453.72 432.56 473.03V473.13C433.34 478.83 433.97 483.58 434.39 488.44C434.96 495.23 436.01 504.88 437.33 515.59C437.36 515.82 437.2 516.03 436.97 516.07C435.14 516.39 433.26 516.54 431.39 516.54C423.28 516.54 415.13 513.64 409.94 508.67C404.69 503.63 393.02 488.29 397.95 454.63C400.36 438.26 397.2 420.73 394.4 405.27L394.37 405.08C392.62 395.32 391.11 386.89 391.32 380.55C391.32 380.51 391.32 380.44 391.34 380.36C391.34 380.29 391.35 380.2 391.37 380.11C391.41 379.35 391.48 378.57 391.55 377.8C391.55 377.78 391.55 377.72 391.58 377.63C392.6 371.342 404.153 361.386 417.528 349.861L417.676 349.733C428.442 340.462 440.614 329.981 451.07 318.29L451.14 318.21C451.17 318.17 451.21 318.13 451.24 318.1C452.33 316.97 453.41 315.75 454.46 314.47C456.35 312.19 458.42 309.78 460.77 307.59Z" fill="currentColor"></path>
</g>
<g class="bodymap" id="forearms">
<path d="M135.05 418.55C141.32 418.55 148.19 416.1 154.92 411.47V411.46C155.1 411.34 155.33 411.37 155.48 411.52C155.63 411.67 155.65 411.91 155.52 412.08C151.51 417.52 146.59 424.21 144.16 427.73C139.457 435.289 136.843 440.787 134.543 445.625L134.46 445.8L134.457 445.806C130.428 454.264 126.627 462.244 113.47 478.7C101.33 493.83 93.04 500.16 84.26 506.86L84.199 506.906C77.9179 511.692 71.4135 516.648 63.23 525.21C63.21 525.23 63.19 525.25 63.16 525.27C61.56 527.38 58.6 531.44 56.45 535.48C56.4 535.57 56.33 535.64 56.23 535.68C53.2 536.91 50.19 537.52 47.41 537.52C44.92 537.52 42.61 537.03 40.63 536.04C35.84 533.67 32.13 527.92 30.95 521.04C30.94 520.95 30.95 520.86 30.99 520.78C31.81 519.04 32.73 517.24 33.72 515.43C37.33 507.63 41.56 497.2 46.32 485.38L46.43 485.1C57.43 457.87 71.12 423.99 84.49 407.9C92.4 398.38 98.13 392.38 102.32 388L102.5 387.81C108.4 381.64 111.64 378.25 114.13 372.23C114.229 371.995 114.327 371.761 114.425 371.528C114.593 371.127 114.759 370.728 114.93 370.33L115.04 370.08C115.13 369.87 115.36 369.77 115.58 369.84C115.8 369.91 115.92 370.14 115.87 370.36C108.45 400.78 117.14 412.23 125.73 416.48C128.51 417.85 131.64 418.55 135.05 418.55Z" fill="currentColor"></path>
<path d="M638.96 515.58C640.01 517.47 640.88 519.19 641.61 520.78C641.64 520.86 641.65 520.94 641.64 521.03C640.5 527.9 636.8 533.65 631.99 536.05C630.02 537.04 627.7 537.53 625.21 537.53C622.42 537.53 619.4 536.92 616.38 535.7C616.29 535.66 616.21 535.59 616.16 535.5C614.01 531.46 611.05 527.39 609.47 525.33C609.46 525.32 609.443 525.298 609.425 525.275C609.407 525.252 609.39 525.23 609.38 525.22C601.16 516.63 594.65 511.67 588.351 506.871L588.291 506.825C579.533 500.132 571.243 493.796 559.15 478.7C545.92 462.19 542.15 454.23 538.16 445.8L538.02 445.5L538.012 445.484C535.585 440.399 533.075 435.142 528.39 427.63C526.32 424.65 522.31 419.13 517.12 412.09C517 411.92 517.01 411.68 517.16 411.53C517.31 411.37 517.55 411.35 517.72 411.47C524.43 416.1 531.29 418.55 537.57 418.55C540.97 418.55 544.11 417.85 546.89 416.48C555.48 412.24 564.16 400.82 556.8 370.45C556.74 370.23 556.87 370 557.09 369.93C557.31 369.85 557.55 369.97 557.63 370.18L557.633 370.188C557.792 370.575 557.951 370.963 558.12 371.35C558.25 371.64 558.37 371.93 558.49 372.22C561.01 378.3 564.24 381.68 570.12 387.82L570.48 388.2L570.625 388.352C574.773 392.699 580.44 398.639 588.14 407.91C601.55 424.05 615.27 458.06 626.29 485.38L626.52 485.95C631.01 497.07 635.25 507.57 638.96 515.58Z" fill="currentColor"></path>
</g>
<g class="bodymap" id="biceps">
<path d="M207.71 345.02C207.68 345.12 207.61 345.21 207.52 345.26V345.25C207.32 345.37 207.15 345.57 207.04 345.84C202.959 355.849 196 362.113 191.389 366.264L191.36 366.29C190.73 366.85 190.16 367.36 189.67 367.84C187.7 369.66 179.78 379.71 167.95 395.4C155.59 410.5 143.93 415.86 135.1 415.86C131.98 415.86 129.22 415.19 126.91 414.05C117.4 409.37 105.33 392.91 131.34 335.25C131.34 335.24 131.42 335.08 131.42 335.08C140.01 318.85 144.88 313.74 147.79 310.69L148.08 310.39C148.53 309.92 148.94 309.48 149.32 309.03C149.35 309 149.38 308.97 149.41 308.95C152.39 306.96 155.59 305.18 158.94 303.68C161.66 302.46 164.46 301.43 167.25 300.62C167.39 300.59 167.47 300.57 167.53 300.54C170.77 299.61 174.06 298.94 177.38 298.53C177.54 298.53 177.65 298.52 177.76 298.49C179.544 298.291 180.92 298.24 181.741 298.21L181.75 298.21C190.1 297.96 197.98 297.73 203.74 302.43C213.92 310.71 210.92 329.3 209.79 336.29L209.36 336.24L209.79 336.31C209.32 339.25 208.62 342.18 207.71 345.02Z" fill="currentColor"></path>
<path d="M541.2 335.1C567.3 392.89 555.23 409.38 545.71 414.07L545.73 414.08C543.41 415.23 540.64 415.9 537.52 415.9C528.73 415.9 517.12 410.57 504.8 395.57C504.77 395.54 504.75 395.51 504.74 395.48C492.87 379.77 484.95 369.71 482.96 367.86C482.46 367.4 481.9 366.89 481.28 366.34C476.66 362.2 469.7 355.93 465.59 345.87C465.48 345.61 465.3 345.39 465.08 345.25C464.99 345.2 464.93 345.12 464.9 345.02C463.99 342.17 463.29 339.25 462.83 336.34L462.828 336.326C461.696 329.296 458.707 310.725 468.88 302.45C474.656 297.743 482.529 297.98 490.852 298.23L490.87 298.23C491.7 298.26 493.08 298.32 494.81 298.5C494.931 298.524 495.029 298.53 495.117 298.535C495.175 298.539 495.228 298.542 495.28 298.55C498.49 298.94 501.77 299.61 505.04 300.53C505.19 300.59 505.25 300.61 505.32 300.62C508.17 301.44 510.97 302.47 513.69 303.69C517.04 305.19 520.25 306.97 523.22 308.96L523.235 308.971C523.268 308.995 523.293 309.014 523.31 309.04C523.61 309.39 523.92 309.73 524.25 310.08C524.44 310.28 524.639 310.499 524.839 310.719L524.84 310.72L524.862 310.743C527.755 313.766 532.612 318.841 541.2 335.1Z" fill="currentColor"></path>
</g>
<g class="bodymap" id="shoulders">
<path d="M152.89 303.71C152.83 303.75 152.75 303.77 152.68 303.77H152.66C152.56 303.77 152.47 303.74 152.39 303.68C152.26 303.57 152.19 303.39 152.24 303.22C157.74 282.4 160.82 274.86 162.86 269.87L162.897 269.778C163.919 267.242 164.719 265.259 165.46 262.65C171.07 244.34 184.75 221.38 218.1 216C218.85 215.87 219.39 215.77 219.69 215.7L220.14 215.58C220.467 215.498 220.837 215.404 221.242 215.301C221.728 215.178 222.262 215.042 222.83 214.9C223.469 214.73 224.088 214.571 224.706 214.411L224.71 214.41L225.77 214.14C225.81 214.13 225.84 214.13 225.88 214.13C243.5 210.59 262.01 215.16 271.47 218.2C271.64 218.25 271.77 218.42 271.77 218.6C271.78 218.79 271.66 218.95 271.49 219.02C267.45 220.55 261.53 223.08 256.28 226.42C245.175 233.477 240.444 239.724 233.899 248.368L233.89 248.38C230.84 252.44 227.43 256.97 222.68 262.54L222.658 262.566C217.699 268.376 207.4 280.443 194.34 289.32C190.84 291.69 184.95 293.94 177.31 295.83H177.29C177.24 295.85 177.18 295.86 177.14 295.86C173.74 296.25 170.23 296.96 166.75 297.97C166.733 297.974 166.717 297.977 166.703 297.981C166.604 298.003 166.551 298.015 166.49 298.05C163.47 298.93 160.58 299.99 157.83 301.22C156.1 302.01 154.44 302.84 152.89 303.71Z" fill="currentColor"></path>
<path d="M400.85 218.61C400.85 218.43 400.97 218.27 401.15 218.21L401.14 218.23C410.58 215.19 429.07 210.61 446.76 214.17C447.006 214.234 447.249 214.295 447.49 214.357C447.858 214.451 448.222 214.544 448.59 214.64L449.77 214.94L450.317 215.078C451.36 215.34 452.27 215.569 452.91 215.74C453.2 215.8 453.74 215.91 454.49 216.03C487.82 221.4 501.51 244.33 507.13 262.62C507.872 265.301 508.673 267.288 509.678 269.78L509.71 269.86C511.77 274.9 514.86 282.46 520.36 303.24C520.41 303.41 520.35 303.59 520.21 303.7C520.13 303.76 520.03 303.79 519.94 303.79C519.87 303.79 519.8 303.77 519.73 303.73C518.16 302.85 516.5 302.01 514.78 301.24C507.02 297.76 499.95 296.39 495.38 295.86C487.71 293.99 481.81 291.74 478.26 289.32C465.161 280.424 454.873 268.349 449.914 262.528L449.89 262.5C445.03 256.78 441.4 251.97 438.76 248.45L438.65 248.31C432.13 239.69 427.42 233.47 416.34 226.43C411.09 223.11 405.17 220.57 401.13 219.03C400.96 218.96 400.85 218.79 400.85 218.61Z" fill="currentColor"></path>
</g>
<g class="bodymap" id="traps">
<path d="M395.89 217.17C395.84 217.17 395.75 217.15 395.75 217.15V217.14C384.68 213.38 379.06 209.6 379.06 199.34V178.65C379.06 178.48 379.16 178.32 379.32 178.25C379.48 178.18 379.66 178.21 379.79 178.33C382.83 181.15 388.48 186.15 392.19 188.01C395.081 189.475 402.834 192.729 409.776 195.641L410.13 195.79L412.34 196.72C412.95 196.977 413.555 197.233 414.15 197.484C417.946 199.085 421.335 200.515 422.96 201.25C425.92 202.61 430.04 205.78 433.67 208.64L433.91 208.83C434.02 208.918 434.128 209.002 434.233 209.084C434.367 209.188 434.497 209.289 434.62 209.39C434.75 209.51 434.81 209.71 434.75 209.88C434.69 210.06 434.52 210.17 434.34 210.17C433.89 210.16 433.451 210.16 433.001 210.16C415.031 210.16 399.12 215.95 396.05 217.14C396 217.17 395.94 217.17 395.89 217.17Z" fill="currentColor"></path>
<path d="M276.58 217.15C273.44 215.93 256.81 209.87 238.27 210.18V210.19C238.07 210.19 237.91 210.08 237.85 209.9C237.79 209.72 237.85 209.53 237.99 209.41C238.029 209.378 238.07 209.345 238.111 209.312C238.287 209.169 238.477 209.014 238.68 208.86L238.93 208.66L238.933 208.658C241.963 206.278 246.531 202.69 249.64 201.27C251.51 200.43 255.73 198.65 260.2 196.77L262.48 195.81L262.846 195.657C269.784 192.745 277.531 189.494 280.44 188.03C283.94 186.28 289.1 181.8 292.82 178.35C292.95 178.23 293.13 178.2 293.29 178.27C293.45 178.34 293.55 178.5 293.55 178.67V199.36C293.55 209.61 287.93 213.39 276.88 217.16C276.84 217.18 276.79 217.18 276.74 217.18C276.68 217.18 276.63 217.17 276.58 217.15Z" fill="currentColor"></path>
</g>
<g class="bodymap" id="chest">
<path d="M277.532 219.782C277.578 219.768 277.624 219.754 277.67 219.74H277.66L277.85 219.68C282.69 218.25 291.6 215.63 307.32 217.12C334.48 219.71 334.79 236.91 334.79 237.64V287.27C334.79 297.21 331.34 306.75 325.08 314.13C318.19 322.23 309.8 328.48 300.15 332.7C300.141 332.703 300.129 332.708 300.115 332.713C300.082 332.727 300.036 332.746 299.98 332.76C298.18 333.44 296.71 334.01 295.37 334.57C295.35 334.58 295.32 334.6 295.32 334.6H295.29C288.29 337.01 281.02 338.18 273.77 338.18C255.58 338.18 237.53 330.82 224.21 317.22C224.14 317.16 224.08 317.1 224.03 317.03L223.98 316.98C223.932 316.928 223.885 316.876 223.838 316.825C223.679 316.653 223.527 316.488 223.38 316.31C223.32 316.23 223.26 316.18 223.21 316.14C223.16 316.11 223.12 316.08 223.09 316.05C222.13 315.02 221.16 313.92 220.2 312.75C213.51 304.62 205.11 295.9 190.2 295.44C190 295.43 189.83 295.28 189.79 295.08C189.75 294.88 189.86 294.68 190.05 294.6C192.28 293.66 194.23 292.63 195.85 291.53C209.29 282.42 219.75 270.14 224.78 264.23C229.196 259.042 232.486 254.704 235.386 250.879L235.59 250.61L236 250.06L236.02 250.034C242.629 241.268 246.991 235.483 257.72 228.68C264.15 224.59 271.91 221.64 275.96 220.25C276 220.23 276.05 220.22 276.11 220.2L276.69 220.02C276.75 219.99 276.79 219.97 276.85 219.97C276.869 219.964 276.887 219.958 276.906 219.954C276.917 219.951 276.929 219.95 276.94 219.95C276.953 219.947 276.967 219.941 276.982 219.936C277.013 219.924 277.049 219.91 277.09 219.91C277.236 219.872 277.382 219.827 277.532 219.782Z" fill="currentColor"></path>
<path d="M372.63 332.76C372.54 332.74 372.44 332.69 372.44 332.69H372.42C362.8 328.48 354.41 322.23 347.51 314.13C341.26 306.77 337.82 297.23 337.82 287.27V237.61C337.81 237.61 337.77 232.46 342.02 227.28C346.71 221.57 354.54 218.15 365.29 217.13C380.986 215.63 389.895 218.259 394.676 219.669L394.68 219.67L394.95 219.75C395.15 219.82 395.35 219.88 395.54 219.93C395.58 219.93 395.63 219.95 395.69 219.97C395.7 219.97 395.79 220 395.79 220C395.83 220.01 395.87 220.02 395.92 220.04C395.94 220.05 396.03 220.08 396.05 220.08C396.16 220.12 396.26 220.15 396.37 220.18L396.51 220.23C396.547 220.241 396.582 220.253 396.616 220.265C396.677 220.287 396.737 220.307 396.8 220.32C400.85 221.72 408.53 224.66 414.88 228.7C425.617 235.498 429.988 241.297 436.595 250.063L436.6 250.07L437.03 250.64C439.98 254.53 443.32 258.93 447.88 264.29C452.95 270.24 463.4 282.49 476.75 291.54C478.37 292.64 480.32 293.67 482.55 294.61C482.74 294.69 482.85 294.89 482.81 295.09C482.78 295.3 482.6 295.45 482.4 295.45C467.48 295.9 459.09 304.62 452.39 312.76C451.52 313.84 450.6 314.86 449.5 316.06C449.5 316.07 449.48 316.09 449.48 316.09C449.47 316.1 449.455 316.112 449.44 316.125C449.425 316.137 449.41 316.15 449.4 316.16C449.34 316.2 449.3 316.23 449.25 316.3L449.03 316.55C448.98 316.603 448.931 316.657 448.882 316.71C448.784 316.817 448.687 316.923 448.58 317.03C448.59 317.04 448.51 317.12 448.44 317.19C435.13 330.8 417.05 338.17 398.85 338.17C391.6 338.17 384.32 337 377.32 334.58H377.28C377.276 334.576 377.271 334.574 377.266 334.572C377.257 334.57 377.246 334.57 377.24 334.57C375.57 333.88 373.9 333.24 372.63 332.76Z" fill="currentColor"></path>
</g>
<g class="bodymap" id="quadriceps">
<path d="M458.96 792.3L458.82 793.02L458.79 793.01C455.7 808.78 452.78 823.66 445.26 827.39C442.18 828.92 438.37 828.54 433.62 826.22C431.52 825.19 429.7 825.03 428.21 825.74C425.2 827.18 424.21 831.51 422.96 837L422.956 837.018C420.807 846.414 418.372 857.06 405.71 857.28H405.44C382.64 857.28 375.34 806.56 375.27 806.05C375.26 805.98 375.25 805.92 375.23 805.87C375.2 805.81 375.2 805.76 375.2 805.7C374.55 800.89 373.79 796.12 372.95 791.53V791.38L372.91 791.22C372.88 791.05 372.85 790.88 372.8 790.71C372.43 788.68 372.02 786.51 371.48 783.85L371.42 783.55C371.35 783.23 371.28 782.88 371.22 782.54C365.63 751.25 368.5 747.76 374.79 740.12L374.795 740.114C381.265 732.274 391.032 720.439 399.45 674.95C401.737 662.572 403.351 647.89 405.06 632.351L405.09 632.08L405.118 631.827C409.996 587.785 415.522 537.892 437.54 522.52C437.67 522.43 437.83 522.42 437.97 522.48C438.11 522.54 438.21 522.67 438.23 522.82C441.22 545.99 444.31 565.51 446.09 572.56L446.19 572.92C446.314 573.364 446.463 573.935 446.634 574.597L446.7 574.85C455.6 608.45 474.81 695.9 461.05 782.05V782.07C460.31 785.48 459.62 788.95 458.96 792.3Z" fill="currentColor"></path>
<path d="M267.5 632.08C269.12 646.92 270.81 662.26 273.14 674.95H273.13C281.55 720.45 291.32 732.28 297.79 740.11L297.797 740.118C304.082 747.742 306.958 751.231 301.36 782.54C301.31 782.87 301.24 783.2 301.17 783.53C301.16 783.64 301.14 783.72 301.12 783.79C300.72 785.77 300.33 787.75 299.99 789.7L299.83 790.45C299.77 790.74 299.71 791.04 299.65 791.34C299.64 791.42 299.62 791.52 299.62 791.61C298.77 796.32 298.02 801.04 297.38 805.7C297.38 805.737 297.376 805.774 297.368 805.809C297.364 805.831 297.358 805.851 297.35 805.87C297.343 805.9 297.335 805.94 297.324 805.996C297.32 806.015 297.315 806.037 297.31 806.06C297.3 806.18 295.46 819.01 290.79 831.76C284.68 848.46 276.5 857.28 267.14 857.28H266.89C254.226 857.06 251.792 846.43 249.643 837.044L249.64 837.03L249.6 836.85C248.35 831.44 247.36 827.16 244.37 825.74C242.85 825.03 241.03 825.19 238.96 826.22C234.2 828.54 230.39 828.92 227.31 827.39C219.791 823.661 216.871 808.785 213.782 793.048L213.78 793.04L213.71 792.69L213.601 792.139C212.925 788.731 212.229 785.223 211.48 781.76C197.85 695.79 217.02 608.42 225.89 574.84C226.06 574.22 226.2 573.68 226.32 573.23L226.5 572.55C228.28 565.52 231.37 546.01 234.36 522.84C234.38 522.69 234.48 522.56 234.62 522.5C234.76 522.44 234.93 522.45 235.05 522.54C257.069 537.892 262.594 587.78 267.473 631.824L267.48 631.89L267.5 632.08Z" fill="currentColor"></path>
</g>
<g class="bodymap" id="calves">
<path d="M213.13 880.79C213.65 879.35 214.06 878.18 214.36 877.22C219.58 878.81 222.24 881.96 226.36 889.29C225.671 901.305 223.421 919.666 221.458 935.675C220.998 939.426 220.554 943.049 220.15 946.43C218.66 958.9 213.28 974.49 201.61 983.81C201.488 983.915 201.362 984.013 201.237 984.104C201.147 984.169 201.058 984.231 200.97 984.29C196.03 928.87 208.12 894.82 213.13 880.79Z" fill="currentColor"></path>
<path d="M446.26 889.29C450.38 881.96 453.04 878.82 458.26 877.22C458.57 878.18 458.97 879.35 459.49 880.79C464.49 894.82 476.59 928.87 471.65 984.29C471.44 984.15 471.22 983.99 471.01 983.81C459.34 974.48 453.96 958.9 452.47 946.43C452.066 943.049 451.622 939.427 451.162 935.676C449.199 919.667 446.949 901.305 446.26 889.29Z" fill="currentColor"></path>
<path d="M419.322 902.906C418.618 902.747 417.894 902.558 417.19 902.32V902.3C412.25 900.74 407.39 897.7 402.91 893.4C403.53 898.32 402.73 906.81 400.35 927.92C394.241 972.272 398.539 978.278 402.688 984.077L402.69 984.08L402.759 984.178C404.278 986.317 405.847 988.527 406.95 992.28C406.99 992.4 407.02 992.53 407.07 992.65L407.819 992.047C418.013 983.845 426.766 976.803 425.38 954.81C424.524 941.224 422.33 925.11 420.55 912.034L420.546 912.01C420.104 908.758 419.687 905.695 419.322 902.906Z" fill="currentColor"></path>
<path d="M269.71 893.41C265.24 897.71 260.37 900.74 255.43 902.31V902.33C254.72 902.56 253.99 902.76 253.28 902.92C252.915 905.717 252.496 908.791 252.052 912.054L252.05 912.065C250.27 925.14 248.076 941.255 247.22 954.84C245.834 976.833 254.587 983.875 264.781 992.077C265.03 992.277 265.28 992.478 265.53 992.68C265.54 992.656 265.55 992.631 265.559 992.606C265.573 992.569 265.586 992.531 265.598 992.494C265.618 992.432 265.635 992.37 265.65 992.31C266.758 988.53 268.337 986.317 269.862 984.178L269.91 984.11C274.07 978.3 278.36 972.3 272.25 927.95C269.87 906.84 269.07 898.35 269.69 893.43L269.71 893.41Z" fill="currentColor"></path>
</g>



<g id="hamstrings" class="bodymap" transform="translate(673,-12)">
<path d="M445.184 807.888C446.787 801.789 448.155 795.533 449.322 789.172L449.314 789.164C465.006 703.905 443.772 599.686 435.564 575.803C431.113 562.86 431.356 559.172 431.634 554.931L431.635 554.927C431.641 554.821 431.647 554.715 431.654 554.609C431.719 553.54 431.787 552.428 431.739 551.049V550.997C430.38 539.609 417.432 527.898 403.996 519.743C409.562 527.112 412.133 536.561 415.172 547.736L415.175 547.747L415.363 548.427C416.558 552.771 417.791 557.25 419.314 562.019C427.627 587.984 426.773 608.53 416.814 623.099C404.85 640.569 383.416 643.679 374.764 644.219C373.509 644.289 372.245 644.376 371.008 644.464C370.834 644.481 370.642 644.498 370.468 644.498C370.113 644.534 369.758 644.553 369.397 644.573C369.227 644.582 369.056 644.592 368.882 644.603C367.201 644.725 365.536 644.829 363.881 644.917H363.741C360.352 645.23 357.163 645.927 355.464 647.853C354.279 649.186 353.808 651.103 354 653.726C355.307 670.633 351.554 677.779 347.922 684.695L347.913 684.71C343.332 693.446 339.007 701.693 345.766 730.951C347.108 735.909 348.458 740.718 349.8 745.484C353.852 759.896 357.764 773.855 361.171 790.227C361.572 790.488 361.851 790.906 361.92 791.394C369.135 840.38 376.863 860.368 388.6 860.368C401.827 860.368 402.576 837.165 403.012 823.311C403.291 814.275 403.413 810.537 406.088 810.067C408.423 809.683 410.296 811.452 417.458 829.497C423.226 844.039 427.557 845.799 429.604 845.538C435.294 844.858 440.592 830.569 444.434 814.807C444.469 812.376 444.713 810.075 445.184 807.888Z" fill="currentColor"></path>
<path d="M305.441 730.959C305.441 730.925 305.459 730.855 305.459 730.855L305.45 730.864C312.159 701.683 307.855 693.44 303.28 684.719L303.277 684.712C299.645 677.796 295.892 670.65 297.181 653.743C297.382 651.12 296.902 649.212 295.717 647.87C294.01 645.945 290.847 645.265 287.475 644.951C287.37 644.934 287.283 644.934 287.178 644.934C285.61 644.847 284.016 644.742 282.412 644.62H282.273C281.445 644.568 280.626 644.533 279.842 644.464C279.797 644.464 279.756 644.459 279.716 644.454C279.678 644.45 279.64 644.446 279.598 644.446C279.24 644.423 278.882 644.397 278.525 644.372C277.823 644.322 277.122 644.272 276.418 644.237C267.757 643.697 246.322 640.586 234.385 623.116C224.409 608.548 223.555 588.002 231.867 562.037C233.488 557.009 234.769 552.321 236.006 547.764L236.024 547.696C239.075 536.547 241.654 527.117 247.202 519.76C233.679 527.968 220.662 539.748 219.425 551.206V551.258C219.409 552.525 219.476 553.566 219.54 554.563C219.548 554.691 219.556 554.818 219.564 554.944L219.567 554.985C219.827 559.211 220.055 562.915 215.634 575.821C206.825 601.49 182.96 719.911 206.006 807.827C206.494 810.049 206.738 812.367 206.773 814.815C210.616 830.578 215.922 844.867 221.585 845.547C223.65 845.808 227.964 844.057 233.732 829.506C240.894 811.47 242.793 809.692 245.102 810.075C247.777 810.546 247.899 814.282 248.195 823.314L248.196 823.319C248.631 837.173 249.363 860.377 262.59 860.377C274.318 860.377 282.055 840.389 289.287 791.403C289.357 790.915 289.636 790.497 290.019 790.253C293.443 773.863 297.355 759.922 301.407 745.493C302.749 740.727 304.099 735.917 305.441 730.959Z" fill="currentColor"></path>
</g>
<g id="lower_back" class="bodymap" transform="translate(673,-12)">
<path d="M378.772 505.052C366.957 502.464 351.674 502.97 340.251 511.465C332.897 516.937 327.982 524.988 325.595 535.522C323.216 524.988 318.311 516.946 310.957 511.465C299.534 502.961 284.26 502.464 272.436 505.052C278.465 497.576 278.012 486.885 277.542 475.75C277.036 463.856 276.479 450.351 283.101 437.717C303.472 398.873 312.891 375.574 311.471 351.9C316.237 364.656 319.557 370.581 325.586 370.581C331.616 370.581 334.936 364.656 339.684 351.918C338.29 375.591 347.718 398.864 368.072 437.717C374.694 450.351 374.136 463.856 373.631 475.75C373.178 486.894 372.725 497.585 378.754 505.052H378.772Z" fill="currentColor"></path>
</g>
<g id="glutes" class="bodymap" transform="translate(673,-12)">
<path d="M323.861 612.416V552.278H323.852C323.852 534.442 318.807 521.651 308.866 514.245C297.12 505.497 280.731 506.019 269.325 509.444C267.539 509.975 265.875 510.568 264.324 511.195C264.306 511.212 264.289 511.212 264.271 511.23C263.688 511.474 263.113 511.718 262.555 511.979C262.513 511.993 262.471 512.01 262.43 512.028C262.367 512.056 262.304 512.087 262.241 512.119C247.46 519.096 244.128 531.268 239.391 548.575L239.146 549.472C237.961 553.809 236.736 558.295 235.196 563.082C227.232 587.976 227.929 607.493 237.261 621.138C248.344 637.336 268.489 640.238 276.627 640.743C277.106 640.778 277.583 640.808 278.06 640.839C278.537 640.869 279.014 640.9 279.493 640.935H279.737C280.609 641.022 281.541 641.074 282.5 641.126H282.569C282.7 641.134 282.835 641.142 282.971 641.149C283.143 641.159 283.318 641.169 283.493 641.179L283.671 641.187C285.028 641.254 286.438 641.324 287.841 641.457C287.893 641.457 287.963 641.475 288.015 641.475C299.647 642.12 310.147 641.823 316.594 635.794C321.5 631.219 323.861 623.578 323.861 612.416Z" fill="currentColor"></path>
<path d="M374.572 640.743C382.719 640.238 402.864 637.336 413.956 621.138H413.947C423.279 607.493 423.976 587.976 416.012 563.082C414.386 558.023 413.095 553.317 411.849 548.774L411.821 548.671C407.098 531.305 403.761 519.107 388.949 512.119C388.844 512.066 388.74 512.014 388.635 511.979C388.086 511.718 387.511 511.474 386.919 511.23C386.901 511.212 386.884 511.212 386.866 511.195C385.324 510.576 383.651 509.984 381.865 509.444C370.468 506.019 354.087 505.505 342.324 514.245C332.374 521.651 327.338 534.442 327.338 552.278V612.416C327.338 623.578 329.716 631.219 334.604 635.794C341.087 641.858 351.682 642.12 363.384 641.458C363.419 641.458 363.454 641.453 363.489 641.449C363.524 641.444 363.558 641.44 363.593 641.44C364.929 641.323 366.257 641.254 367.546 641.187L368.708 641.126C368.874 641.118 369.039 641.105 369.205 641.091C369.37 641.078 369.536 641.065 369.701 641.057C369.953 641.039 370.195 641.025 370.441 641.012C370.671 640.999 370.903 640.986 371.148 640.97C371.215 640.961 371.283 640.957 371.348 640.953C371.418 640.948 371.486 640.944 371.548 640.935H371.705C372.185 640.9 372.663 640.869 373.141 640.839C373.617 640.808 374.094 640.778 374.572 640.743Z" fill="currentColor"></path>
</g>
<g id="lats" class="bodymap" transform="translate(673,-12)">
<path d="M454.007 309.662L454.036 309.519L454.028 309.502L454.04 309.443C456.729 296.531 459.508 283.182 453.627 279.328H453.609C449.07 277.219 444.591 274.51 440.4 270.998C433.569 265.282 426.947 260.141 420.517 255.166L420.163 254.892C410.325 247.256 400.986 240.007 391.902 231.388L391.676 231.649C371.514 269.107 359.228 298.619 351.09 320.263C349.887 323.513 348.763 326.571 347.718 329.472C347.648 329.647 347.596 329.804 347.544 329.978C337.009 362.469 344.485 385.22 371.148 436.079C378.223 449.549 377.63 463.543 377.107 475.88L377.107 475.901C376.515 490.495 376.042 502.153 388.199 507.971H388.217C388.905 508.267 389.567 508.546 390.212 508.86L390.578 509.017C402.89 514.009 420.517 524.683 429.517 537.282C424.115 514.41 420.412 471.994 420.621 459.116C420.626 458.736 420.63 458.345 420.633 457.943C420.64 456.943 420.644 455.872 420.656 454.716C420.708 440.313 420.83 413.494 432.41 395.083C443.781 377.012 451.527 343.501 452.607 338.578C449.301 332.278 451.587 321.294 454.007 309.662Z" fill="currentColor"></path>
<path d="M274.079 475.804C273.574 463.489 273.003 449.532 280.042 436.096L280.051 436.113C306.714 385.254 314.207 362.495 303.655 330.013C303.603 329.838 303.551 329.682 303.481 329.507C302.435 326.606 301.311 323.547 300.109 320.297C291.971 298.671 279.703 269.16 259.558 231.719L259.296 231.423C250.185 240.076 240.808 247.348 230.918 255.018L230.682 255.201C224.269 260.168 217.63 265.317 210.816 271.033C206.608 274.562 202.094 277.298 197.537 279.398C197.52 279.398 197.502 279.415 197.485 279.432C191.734 283.362 194.496 296.657 197.171 309.535L197.171 309.537C199.611 321.212 201.92 332.269 198.6 338.595C199.698 343.509 207.444 377.02 218.815 395.1C230.361 413.462 230.49 440.205 230.56 454.639L230.56 454.733C230.56 456.354 230.578 457.809 230.595 459.134C230.787 472.012 227.084 514.428 221.681 537.3C230.804 524.552 248.745 513.765 261.048 508.842C261.089 508.822 261.13 508.801 261.175 508.784C261.206 508.773 261.238 508.762 261.274 508.755C261.806 508.494 262.363 508.25 262.938 508.023C262.938 508.023 262.944 508.018 262.951 508.013C262.958 508.009 262.965 508.006 262.973 508.006C275.18 502.168 274.694 490.536 274.085 475.962L274.079 475.804Z" fill="currentColor"></path>
</g>
<g id="upper_back" class="bodymap" transform="translate(673,-12)">
<path d="M384.871 237.078C366.843 271.303 355.568 298.575 347.918 318.929C347.901 318.947 347.901 318.982 347.883 318.999C346.646 322.04 345.557 324.994 344.599 327.878V327.895C343.048 332.191 341.662 336.086 340.425 339.597C333.96 357.921 330.727 367.113 325.595 367.113C320.463 367.113 317.23 357.921 310.765 339.597C309.476 335.946 308.055 331.895 306.435 327.434C306.435 327.416 306.417 327.381 306.4 327.364C305.581 324.915 304.666 322.389 303.638 319.818C303.586 319.696 303.533 319.574 303.481 319.452C303.429 319.295 303.376 319.156 303.307 318.999C295.674 298.645 284.382 271.355 266.354 237.095C268.802 238.263 271.312 238.716 274.109 238.716C277.69 238.716 281.742 237.984 286.656 237.095C295.395 235.509 307.393 233.34 325.586 233.34C343.78 233.34 355.778 235.509 364.534 237.095C369.457 237.984 373.483 238.716 377.064 238.716C379.861 238.716 382.396 238.263 384.854 237.078H384.871Z" fill="currentColor"></path>
</g>
<g id="traps" class="bodymap" transform="translate(673,-12)">
<path d="M420.952 210.328C405.051 212.672 395.736 222.047 390.569 227.728C390.186 228.129 389.855 228.495 389.524 228.861L389.036 229.401C389.036 229.401 388.984 229.471 388.966 229.488C382.362 236.79 377.317 235.884 365.153 233.679C356.274 232.059 344.102 229.872 325.595 229.872C307.088 229.872 294.916 232.059 286.037 233.679C273.873 235.884 268.846 236.79 262.241 229.488C262.224 229.471 262.189 229.436 262.172 229.401L261.666 228.861C261.353 228.513 261.021 228.147 260.673 227.763L260.638 227.728L260.534 227.624C255.358 221.925 246.07 212.637 230.255 210.328L230.412 210.224C233.575 208.263 237.905 205.579 240.946 204.177C242.889 203.288 247.446 201.397 252.247 199.358C257.188 197.293 262.555 195.045 266.502 193.329C266.519 193.329 266.519 193.311 266.537 193.311C266.572 193.311 266.589 193.311 266.624 193.294C285.88 188.031 306.426 189.068 317.466 189.608C318.651 189.678 319.705 189.73 320.663 189.765C323.931 189.904 327.268 189.904 330.553 189.765C331.494 189.73 332.566 189.678 333.751 189.608C344.773 189.068 365.319 188.022 384.592 193.294H384.662C388.609 195.01 393.994 197.293 398.951 199.358C403.77 201.388 408.301 203.288 410.27 204.177C413.311 205.588 417.641 208.263 420.787 210.224C420.839 210.258 420.909 210.293 420.961 210.328H420.952Z" fill="currentColor"></path>
</g>
<g id="shoulders" class="bodymap" transform="translate(673,-12)">
<path d="M229.447 251.746C239.028 244.299 248.146 237.211 256.961 228.852C250.914 222.405 239.857 212.689 220.862 213.299C220.858 213.299 220.848 213.3 220.835 213.302C220.796 213.307 220.721 213.317 220.618 213.317C216.462 213.77 159.678 221.211 146.852 288.25C150.033 286.194 154.982 283.624 160.096 283.345C160.551 283.33 161.071 283.304 161.631 283.276C161.748 283.27 161.867 283.264 161.987 283.258C171.092 282.857 192.422 281.898 208.568 268.358C215.451 262.59 222.108 257.423 228.556 252.439L229.447 251.746Z" fill="currentColor"></path>
<path d="M491.111 283.345C496.234 283.624 501.175 286.203 504.373 288.25C491.564 221.333 434.972 213.805 430.607 213.317C430.45 213.317 430.345 213.299 430.345 213.299H430.328C411.333 212.724 400.311 222.439 394.264 228.852C403.267 237.381 412.551 244.587 422.362 252.201L422.669 252.439C429.117 257.423 435.774 262.59 442.64 268.358C446.595 271.66 450.856 274.239 455.169 276.217C468.5 282.334 482.354 282.961 489.22 283.258C489.377 283.265 489.53 283.273 489.679 283.281C490.201 283.307 490.677 283.331 491.111 283.345Z" fill="currentColor"></path>
</g>
<g id="calves" class="bodymap" transform="translate(673,-12)">
<path d="M450.943 1016.66C463.752 1015.89 466.915 989.158 468.309 963.036L468.317 963.027C467.899 937.576 462.619 919.766 457.835 904.884C457.801 904.788 457.77 904.696 457.74 904.605C457.709 904.513 457.679 904.422 457.644 904.326C457.563 904.067 457.48 903.807 457.396 903.547C457.262 903.133 457.127 902.72 456.999 902.313C456.197 900.17 455.073 898.192 453.505 897.774C450.203 896.868 444.461 902.427 439.424 907.35L439.406 907.367C431.691 914.874 422.959 923.369 415.437 917.779C410.314 913.972 404.371 913.057 399.535 915.348C394.081 917.936 390.744 924.314 390.36 932.836C390.308 933.672 389.698 934.352 388.896 934.474C384.583 975.931 384.88 989.21 387.799 998.786C387.816 998.821 387.816 998.838 387.816 998.873C396.814 1022.4 406.325 1020.43 409.465 1019.79L409.477 1019.78C417.458 1018.11 418.565 1007.21 419.454 998.455C420.159 991.38 420.735 985.803 424.908 985.455C428.187 985.161 430.435 989.771 433.835 996.744L433.909 996.895C437.961 1005.25 443.502 1016.66 450.56 1016.66H450.943Z" fill="currentColor"></path>
<path d="M263.496 998.655C263.496 998.62 263.531 998.568 263.531 998.568L263.54 998.577C266.354 989.001 266.633 975.618 262.337 934.491C261.536 934.387 260.908 933.707 260.873 932.853C260.49 924.332 257.135 917.954 251.681 915.366C246.854 913.065 240.903 913.989 235.797 917.797C228.286 923.378 219.569 914.916 211.844 907.418L211.792 907.367L211.729 907.306C206.7 902.407 201.017 896.871 197.711 897.791C196.248 898.192 195.158 899.97 194.357 901.965L194.305 902.122C194.043 902.941 193.764 903.768 193.485 904.622C188.667 919.557 183.317 937.445 182.899 963.027V963.149C184.31 989.236 187.491 1015.9 200.264 1016.67C207.514 1017.08 213.177 1005.43 217.316 996.904L217.404 996.722C220.779 989.766 223.026 985.135 226.317 985.464C230.463 985.81 231.034 991.337 231.761 998.366L231.771 998.464L231.777 998.517C232.665 1007.27 233.765 1018.13 241.73 1019.79L241.746 1019.8C244.907 1020.44 254.423 1022.4 263.409 998.812C263.416 998.798 263.42 998.786 263.425 998.776C263.432 998.76 263.441 998.746 263.461 998.725C263.461 998.708 263.479 998.69 263.479 998.69L263.496 998.655Z" fill="currentColor"></path>
</g>
<g id="triceps" class="bodymap" transform="translate(673,-12)">
<path d="M542.641 384.976C545.908 385.951 549.629 387.032 550.814 385.812H550.805C551.52 385.063 552.225 382.771 550.492 375.801C549.564 373.453 548.981 371.145 548.428 368.955L548.357 368.673C548.339 368.621 548.322 368.551 548.322 368.499C548.292 368.424 548.275 368.336 548.259 368.257L548.252 368.22C547.555 365.414 546.867 362.757 545.49 360.343C541.534 353.434 536.023 341.446 535.046 339.322C534.971 339.158 534.922 339.053 534.904 339.013C534.869 338.944 534.834 338.857 534.817 338.769C527.419 312.865 506.472 294.167 505.688 293.469H505.671L505.584 293.382L505.575 293.375C504.632 292.632 497.737 287.195 490.911 286.813C490.6 286.792 490.256 286.778 489.888 286.762C489.627 286.751 489.354 286.74 489.072 286.725L488.989 286.722C482.834 286.442 471.391 285.922 459.491 281.698C461.944 288.605 459.673 299.515 457.454 310.171L457.443 310.225L457.44 310.242C455.175 321.102 452.836 332.324 455.892 337.358L455.927 337.393V337.41L456.415 338.159C464.091 350.28 484.533 382.449 492.479 390.604C494.44 392.617 496.086 394.377 497.707 396.163C513.321 410.244 519.699 411.917 522.322 410.854C525.293 409.643 525.659 403.413 525.973 397.941C526.304 392.051 526.635 386.483 529.989 384.4C533.449 382.266 538.119 383.634 542.641 384.976Z" fill="currentColor"></path>
<path d="M195.254 337.454L195.289 337.401H195.28C198.373 332.374 196.021 321.117 193.747 310.234C191.525 299.561 189.251 288.625 191.717 281.707C179.816 285.931 168.374 286.451 162.219 286.73L162.135 286.734C161.847 286.749 161.573 286.76 161.311 286.771C160.946 286.787 160.604 286.801 160.279 286.821C153.413 287.205 146.512 292.677 145.624 293.391L145.537 293.478H145.519C144.761 294.14 123.78 312.865 116.374 338.778C116.356 338.865 116.321 338.952 116.286 339.022C116.042 339.58 109.961 352.911 105.717 360.352C104.332 362.774 103.635 365.432 102.938 368.229L102.93 368.266C102.915 368.345 102.898 368.433 102.868 368.508C102.868 368.56 102.851 368.63 102.833 368.682L102.806 368.79C102.266 370.98 101.694 373.295 100.751 375.652L100.733 375.687C98.9558 382.762 99.6703 385.054 100.385 385.821C101.587 387.032 105.29 385.96 108.558 384.984C113.071 383.642 117.75 382.274 121.227 384.409C124.565 386.482 124.892 392.006 125.238 397.864L125.244 397.949L125.246 397.995C125.559 403.456 125.914 409.646 128.894 410.862C131.508 411.934 137.886 410.235 153.492 396.172C155.104 394.386 156.759 392.626 158.72 390.613C166.675 382.457 187.099 350.28 194.784 338.168L195.254 337.454Z" fill="currentColor"></path>
</g>
<g id="forearms" class="bodymap" transform="translate(673,-12)">
<path d="M622.044 548.592C626.462 546.884 630.339 541.622 632.265 534.755L632.256 534.738C631.786 534.041 631.333 533.283 630.914 532.29C630.183 530.547 628.649 525.79 626.34 518.575L626.117 517.882C621.416 503.25 613.707 479.261 604.47 455.187C590.285 418.199 564.772 392.617 557.297 385.664C556.451 384.871 555.685 384.087 555.022 383.285C554.944 385.498 554.369 387.11 553.306 388.208C550.657 390.97 546.074 389.62 541.656 388.313C538.04 387.232 533.954 386.03 531.802 387.354C529.998 388.476 529.707 393.512 529.448 398.001L529.44 398.132L529.437 398.188C529.037 405.001 528.625 412.027 523.637 414.069C522.801 414.417 521.869 414.592 520.858 414.592C517.573 414.592 513.312 412.753 507.823 408.911C510.855 412.98 514.611 418.138 519.664 425.091L520.1 425.666C526.426 434.379 531.767 443.676 537.413 453.531L537.46 453.613C546.385 469.167 555.621 485.263 569.242 499.145C591.261 521.755 601.15 536.289 605.376 545.394C611.458 549.097 617.662 550.282 622.044 548.592Z" fill="currentColor"></path>
<path d="M131.543 425.091C136.582 418.159 140.33 413.01 143.332 408.947C137.873 412.777 133.638 414.609 130.341 414.609C129.339 414.609 128.415 414.435 127.579 414.086C122.577 412.039 122.159 404.981 121.776 398.15C121.514 393.628 121.218 388.504 119.397 387.372C117.262 386.056 113.176 387.25 109.56 388.33L109.55 388.333C105.118 389.639 100.549 390.986 97.8929 388.226C96.856 387.128 96.2635 385.524 96.1764 383.337C95.5054 384.113 94.7561 384.897 93.9196 385.681C86.4263 392.634 60.914 418.216 46.7289 455.204C37.4945 479.294 29.7732 503.308 25.072 517.929L24.8588 518.593C22.5585 525.807 21.0337 530.573 20.3018 532.307C19.8835 533.292 19.413 534.058 18.9425 534.755C20.8681 541.622 24.7455 546.893 29.1805 548.592C33.5458 550.282 39.7671 549.097 45.8489 545.394C50.0661 536.272 59.9556 521.755 81.9651 499.145C95.6215 485.244 104.873 469.116 113.8 453.551L113.812 453.531C119.458 443.676 124.799 434.371 131.125 425.666L131.543 425.091Z" fill="currentColor"></path>
</g>




</svg>
