<?xml version="1.0" encoding="UTF-8"?>
<svg width="327px" height="76px" viewBox="0 0 327 76" version="1.1" xmlns="http://www.w3.org/2000/svg" xmlns:xlink="http://www.w3.org/1999/xlink">
    <title>hevy-logo</title>
    <g id="Assets" stroke="none" stroke-width="1" fill="none" fill-rule="evenodd">
        <g id="Artboard" transform="translate(-37.000000, -25.000000)" fill="#000000" fill-rule="nonzero">
            <g id="hevy-logo" transform="translate(37.000000, 25.000000)">
                <g id="logo_only">
                    <path d="M26.7572337,0 C32.5878469,0 37.334937,4.59144672 37.5087595,10.3204546 L37.5136908,10.6459297 L37.5136908,23.1580727 C37.5136908,25.4194519 35.8680497,27.9054334 33.3765919,28.7006577 C30.8851342,29.4958819 29.3677483,26.9916961 29.2460421,24.8384192 L29.239493,24.6060684 L29.239493,10.6459325 C29.2394921,9.28910448 28.1281466,8.18917861 26.7572337,8.18917861 C26.6468722,8.18917861 26.5366336,8.196463 26.4272516,8.2109833 L24.9872835,8.4109715 L23.6049049,8.62088848 C23.153732,8.69249683 22.7121899,8.76573183 22.2803113,8.84056532 L21.0136983,9.06983311 C17.5072854,9.73285282 14.7014105,10.5093295 12.6160902,11.3819738 C11.2769197,11.9423767 10.3035782,12.515017 9.69604156,13.0541495 C9.31708207,13.390441 9.17304782,13.6142345 9.14064273,13.7548652 C9.11575232,13.8628839 9.09144461,13.9814199 9.06771364,14.1100866 L8.99824498,14.5260918 L8.932201,15.0005601 L8.86954597,15.531171 L8.81024414,16.115604 L8.75425975,16.7515384 L8.67642521,17.7969291 L8.60585386,18.9451449 L8.54242508,20.188354 L8.46875551,21.9801967 L8.4072834,23.9084283 L8.34716029,26.482233 L8.29879364,29.762759 L8.27545848,33.1935221 L8.27524458,36.4207075 L8.29873146,40.1234322 L8.336846,43.1825449 L8.39113719,46.17344 L8.46096768,49.0547409 L8.52759209,51.2530688 L8.62378723,53.8328314 L8.75732158,56.6273137 L8.8568044,58.2746353 L8.93667598,59.3818404 L9.02090272,60.3691558 L9.10934694,61.2276441 L9.1683683,61.7094797 L9.2879696,61.8279553 L9.37592102,61.9054156 C9.92094942,62.3695715 10.870853,62.9048385 12.2105926,63.4525606 C13.5159993,63.9862466 15.1171836,64.5030843 17.0089747,64.9993838 L18.0696502,65.2680336 L19.1877803,65.5324766 C19.7611779,65.6636243 20.356051,65.7931445 20.9722948,65.9209625 L22.2332455,66.1743065 L23.5509981,66.4229781 C23.9996952,66.505075 24.4578282,66.5863711 24.9253661,66.666844 L26.3561631,66.9057714 C27.7090638,67.1250008 28.985372,66.2172476 29.2068773,64.878248 L29.2313257,64.6804283 L29.239493,64.4812983 L29.239493,56.202835 C29.239493,48.5091859 33.2789493,41.3814445 39.8817994,37.3655972 L40.306725,37.1135173 L50.5407194,31.1934439 C54.7293088,28.7704645 57.3514946,24.3888134 57.5021175,19.609755 L57.5089766,19.1742438 L57.5089766,10.8949604 C57.508981,5.015377 62.3248092,0.249033827 68.2654337,0.249033827 C68.8466558,0.249033827 69.4269216,0.2956589 70.0005321,0.388451101 L71.3707894,0.615541313 L72.7002499,0.847126448 L73.9889756,1.08358188 L75.2370283,1.32528299 L76.4444702,1.57260514 C76.6423297,1.61431478 76.8384996,1.65627426 77.0329814,1.69849142 L78.1796231,1.95494898 C78.367357,1.99822811 78.5534052,2.04178054 78.737769,2.08561411 L79.82375,2.35205167 L80.869368,2.62561179 C89.0730251,4.84358396 93.4077836,7.78135748 94.0164373,12.303799 L94.0941602,12.9338741 L94.1692818,13.6473978 C94.1815807,13.7730406 94.1937678,13.9019866 94.2058414,14.0341487 L94.2769066,14.86502 L94.3782153,16.2469258 L94.4421081,17.2525092 L94.5607721,19.4472467 L94.6667248,21.858922 L94.7374511,23.7899592 L94.8003786,25.8101582 L94.8552295,27.9054334 L94.9279444,31.5261387 L94.9598983,33.7527557 L94.9883063,36.7555907 L94.9998848,39.7666915 L94.9896876,43.4913276 L94.9699176,45.6801406 L94.9270541,48.5157139 L94.8821685,50.5620019 L94.8260558,52.5237322 L94.758438,54.3868195 L94.7068305,55.5671202 L94.6499037,56.6931459 L94.5875752,57.7607232 L94.5197628,58.7656787 L94.4463839,59.7038388 L94.3673564,60.5710303 L94.2825977,61.3630795 C94.2679891,61.488594 94.2531382,61.6108037 94.2380435,61.7296216 L94.1445337,62.4011324 C94.080224,62.8207448 94.0119563,63.1833066 93.9396208,63.4832533 C92.7622827,68.3652075 87.6395085,71.4693362 78.558159,73.5897568 L77.4263715,73.8445376 C76.8505845,73.9695238 76.2599571,74.0909441 75.6544861,74.2089808 L74.423752,74.4405966 L73.1534299,74.6635135 C72.9384102,74.6999594 72.7217408,74.7360563 72.5034216,74.771811 L71.1737074,74.9822868 C70.7238693,75.0511126 70.2674311,75.1186236 69.8043917,75.1848737 C63.9248891,76.0260781 58.4695925,71.9907165 57.6196401,66.1716292 C57.5705198,65.8353329 57.5377094,65.4969986 57.5212937,65.1577899 L57.5089766,64.6484666 L57.5089766,52.2190061 C57.5089766,49.9576269 59.5145356,47.1794023 61.6460755,46.6764211 C63.7776154,46.17344 65.6549191,48.3853827 65.7766253,50.5386596 L65.7831744,50.7710105 L65.7831744,64.6484666 C65.7831744,64.7660866 65.7917089,64.8835547 65.8087121,64.9999646 C66.0048547,66.3428292 67.2637713,67.274068 68.6205732,67.0799448 L69.2229234,66.9922155 L70.395639,66.8122326 L71.5257016,66.6266231 C71.7104905,66.5952464 71.8935019,66.5636555 72.0747355,66.5318606 L73.1408036,66.3387243 L74.1641986,66.1411788 L75.1449124,65.939711 L76.0829371,65.7348078 L76.9782645,65.5269562 L77.8308865,65.3166432 L78.6407952,65.1043556 L79.4079825,64.8905803 C79.5322865,64.8548542 79.6548101,64.8190864 79.7755531,64.7832871 L80.4786431,64.5681934 L81.1389916,64.3528295 L81.7565905,64.1376822 L82.3314318,63.9232386 L82.8635073,63.7099854 C83.0337373,63.6391536 83.1968383,63.5686013 83.352809,63.4984098 L83.7993289,63.2889985 C83.9410377,63.2196096 84.0756148,63.1506626 84.203059,63.0822386 L84.5639911,62.8786169 C84.6205795,62.8449685 84.6753843,62.8114712 84.7284054,62.7781351 L85.0251255,62.5801338 C85.529865,62.2209753 85.81873,61.8837763 85.8914973,61.5820392 C85.9152586,61.4835107 85.9384653,61.3748134 85.9611234,61.2563081 L86.027458,60.871729 L86.0905368,60.4304671 L86.1791287,59.66703 L86.2605962,58.7882351 L86.33506,57.8013897 L86.4236588,56.330147 L86.500307,54.697126 L86.5797474,52.4547362 L86.6188954,51.0150324 L86.6703357,48.4818647 L86.7099718,45.2632008 L86.7269729,41.3353633 L86.7231064,39.0411068 L86.7110579,36.9069221 L86.6766779,33.5945966 L86.6269196,30.4899312 L86.5307885,26.3111916 L86.4442156,23.5067356 L86.3217931,20.4102547 L86.2295322,18.5444753 L86.1291935,16.8641045 L86.0761125,16.1005657 L85.9929836,15.059074 L85.9057868,14.1507042 L85.8474945,13.6403221 L85.7456051,13.5412863 L85.6607948,13.4662644 C85.1229519,13.0059707 84.1777761,12.4724772 82.8406053,11.9257807 C80.8234255,11.1010654 78.0953435,10.3161736 74.6756875,9.58484118 L73.4400657,9.32897013 L72.147201,9.07768111 L70.7972822,8.83110832 L69.3904982,8.58938596 C69.1513059,8.54951056 68.9097521,8.50984285 68.6658407,8.47038563 C68.5334692,8.44897206 68.3995618,8.43821244 68.2654337,8.43821244 C66.9598024,8.43821244 65.8896064,9.43587762 65.7906427,10.7029699 L65.7831744,10.8949634 L65.7831744,19.1742438 C65.7831744,26.8678929 61.7437181,33.9956343 55.140868,38.0114816 L54.7159424,38.2635615 L44.481948,44.183635 C40.2933586,46.6066143 37.6711728,50.9882654 37.5205499,55.7673238 L37.5136908,56.202835 L37.5136908,64.4812983 C37.5136908,65.0575107 37.4664239,65.632772 37.3723559,66.2014132 C36.4125,72.0037446 30.8818303,75.9373418 25.0192604,74.9873479 L23.6548896,74.7608462 L22.3309809,74.529834 L21.0474708,74.2939422 L19.8042957,74.0528016 L18.6013921,73.8060429 C18.4042606,73.7644278 18.2088044,73.7225632 18.0150222,73.6804414 L16.8724067,73.4245635 C16.6853153,73.3813823 16.4998952,73.3379286 16.3161451,73.2941947 L15.2336747,73.0283667 L14.1912216,72.7554439 C6.01149685,70.5426974 1.66733571,67.6134034 1.01234572,63.1169245 L0.941865467,62.5930742 L0.873515406,62.0054214 L0.807344517,61.3566825 L0.712281282,60.2749789 L0.593614581,58.6442565 L0.510892065,57.2917596 L0.433733958,55.838487 L0.339797966,53.7598721 L0.276266386,52.1071057 L0.184051991,49.2009798 L0.096895737,45.5159151 L0.044747732,42.3300628 L0.0169869239,39.7366881 L0.0045654102,37.779846 L0,36.2574311 L0.00625481292,32.8927516 L0.0325025659,29.865435 L0.0790575144,26.9328608 L0.146580806,24.1316902 L0.216140939,22.0100008 L0.277599059,20.5006128 L0.372198757,18.6123232 L0.481572226,16.8832143 L0.573501249,15.7021369 L0.639580374,14.9742723 L0.709543353,14.2967613 C0.721529854,14.1881693 0.733679946,14.0817732 0.74599451,13.9776217 L0.821862606,13.3800407 L0.90172034,12.8386792 C0.929009226,12.667856 0.956970103,12.5067937 0.985610025,12.3558835 L1.07357397,11.934 C2.14930481,7.26557405 6.65259695,4.19469373 14.5311898,2.11570125 L15.5779696,1.85010362 L16.6630068,1.59545745 C16.8470331,1.55391245 17.0326523,1.51281132 17.2198639,1.47214784 L18.362239,1.23336887 L19.542807,1.0047947 C19.7427497,0.967532812 19.9442826,0.930683678 20.1474053,0.894241076 L21.3852145,0.680414082 C21.5946941,0.645572722 21.8057624,0.61112545 22.0184189,0.577066044 L23.3134113,0.377314214 C23.5324182,0.344781381 23.7530122,0.312623969 23.9751928,0.280835755 L25.3273103,0.0944870783 C25.8012992,0.0315657326 26.2790003,0 26.7572337,0 Z" id="Path-25-Copy-73"></path>
                </g>
                <polygon id="Path" points="143.592056 16.0878873 143.592056 32.336079 158.513934 32.336079 158.513934 16.0878873 168.945885 16.0878873 168.945885 58.2923912 158.513934 58.2923912 158.513934 40.9699389 143.592056 40.9699389 143.592056 58.2923912 133.160104 58.2923912 133.160104 16.0878873"></polygon>
                <polygon id="Path" points="220.059645 16.0878873 220.059645 24.3188995 202.880001 24.3188995 202.880001 32.6046442 217.565826 32.6046442 217.565826 40.8356563 202.880001 40.8356563 202.880001 50.061379 220.752373 50.061379 220.752373 58.2923912 192.44805 58.2923912 192.44805 16.0878873"></polygon>
                <path d="M248.60852,16.0878873 C254.12945,38.5723372 256.955025,50.0377472 257.085246,50.4841173 C257.281485,50.0607311 260.25046,38.5953211 265.992172,16.0878873 L276.603077,16.0878873 L263.740752,58.2923912 L250.44028,58.2923912 L237.577955,16.0878873 L248.60852,16.0878873 Z" id="Path"></path>
                <path d="M300.4753,16.0878873 C305.082389,29.0370751 307.446158,35.682183 307.566609,36.0232109 C307.752897,35.7105062 310.357051,29.0653983 315.379071,16.0878873 L326.166209,16.0878873 L313.004616,43.8140124 L313.004616,58.2923912 L302.572664,58.2923912 L302.572664,43.8140124 L289.411071,16.0878873 L300.4753,16.0878873 Z" id="Path"></path>
            </g>
        </g>
    </g>
</svg>